<svg width="24" height="23" viewBox="0 0 24 23" fill="none" xmlns="http://www.w3.org/2000/svg">
<path d="M0.452812 7.10956L7.38245 0.179919L8.3724 1.16987L5.50155 8.09951L5.55105 8.14901L10.4513 3.24876L11.3423 4.13971L4.41261 11.0694L3.42266 10.0794L6.29351 3.14977L6.24401 3.10027L1.34377 8.00052L0.452812 7.10956ZM5.79892 12.4557L12.7286 5.52603L16.0944 8.89186L15.4014 9.58482L12.9266 7.10995L10.6497 9.38683L12.8276 11.5647L12.1346 12.2577L9.95671 10.0798L7.38284 12.6537L9.85771 15.1285L9.16475 15.8215L5.79892 12.4557ZM10.8991 17.5558L16.6903 9.48776L17.5812 10.3787L13.1265 16.6154L13.176 16.6649L18.3237 13.695L19.2147 14.586L16.2448 19.7337L16.2943 19.7832L22.531 15.3285L23.4219 16.2194L15.3539 22.0106L14.2649 20.9217L17.3041 15.6452L17.2645 15.6056L11.988 18.6448L10.8991 17.5558Z" fill="white"/>
</svg>
